# xmcd CD database file
#
# Track frame offsets:
#	182
#	12950
#	27802
#	38235
#	49000
#	59070
#	70222
#	83312
#	95495
#	112617
#	123580
#	134507
#	144215
#	156280
#	167870
#	178080
#
# Disc length: 2510 seconds
#
# Revision: 4
# Processed by: cddbd v1.5.2PL0 Copyright (c) Steve Scherf et al.
# Submitted via: CDex 1.50
#
DISCID=d109cc10
DTITLE=Various Artist - 16 All Time Country Greats - DC 5
DYEAR=1989
DGENRE=Country
TTITLE0=Dolly Parton - Little Blossom
TTITLE1=Frankie Laine - Jezebel
TTITLE2=Carl Belew - Am I That Easy To Forget
TTITLE3=Willie Nelson - I Feel Sorry For Him
TTITLE4=Maxime Brown - Take It Out In Trade
TTITLE5=Charlie Louvin - I Don't Love You Anymore
TTITLE6=David Houston - My Woman's Good To Me
TTITLE7=Barbra Mandrell - Mama Don't Allow No Country Music Here
TTITLE8=Kenny Rogers - Something's Burning
TTITLE9=Donna Fargo - All That's Keeping Me Alive
TTITLE10=Johnny Cash - I Love You Because
TTITLE11=Freddie Fender - But I Do
TTITLE12=Johnny Dollar - Big Big Rolling Man
TTITLE13=Roger Miller - Little Green Apples
TTITLE14=Glenn Campbell -  Wak Right In
TTITLE15=Conway Twitty - Born To Sing The Blues
EXTD=YEAR: 1989
EXTT0=
EXTT1=
EXTT2=
EXTT3=
EXTT4=
EXTT5=
EXTT6=
EXTT7=
EXTT8=
EXTT9=
EXTT10=
EXTT11=
EXTT12=
EXTT13=
EXTT14=
EXTT15=
PLAYORDER=
